<?xml version="1.0" encoding="UTF-8"?>
<svg xmlns="http://www.w3.org/2000/svg" xmlns:xlink="http://www.w3.org/1999/xlink" width="375pt" height="374.999991pt" viewBox="0 0 375 374.999991" version="1.2">
<defs>
<clipPath id="clip1">
  <path d="M 140 46.296875 L 235 46.296875 L 235 185 L 140 185 Z M 140 46.296875 "/>
</clipPath>
</defs>
<g id="surface1">
<path style=" stroke:none;fill-rule:nonzero;fill:rgb(0%,29.019165%,67.83905%);fill-opacity:1;" d="M 279.800781 110.476562 C 291.355469 107.371094 302.402344 102.0625 312.105469 94.980469 C 315.726562 107.40625 317.398438 120.261719 317.09375 133.285156 C 316.890625 141.84375 315.847656 150.25 314.007812 158.414062 C 289.925781 158.097656 266.589844 164.539062 246.289062 176.21875 C 248.976562 159.335938 248.457031 142.417969 244.777344 126.164062 C 255.332031 119.292969 267.054688 113.898438 279.800781 110.476562 Z M 279.800781 110.476562 "/>
<path style=" stroke:none;fill-rule:nonzero;fill:rgb(0%,29.019165%,67.83905%);fill-opacity:1;" d="M 173.992188 244.230469 C 160.304688 230.925781 150.496094 215.164062 144.304688 198.347656 C 159.570312 211.691406 171.644531 228.835938 178.925781 248.683594 C 177.253906 247.226562 175.578125 245.769531 173.992188 244.230469 Z M 173.992188 244.230469 "/>
<path style=" stroke:none;fill-rule:nonzero;fill:rgb(0%,29.019165%,67.83905%);fill-opacity:1;" d="M 174.105469 256.339844 C 163.523438 255.484375 153.097656 253.363281 142.988281 249.871094 C 103.371094 236.175781 74.890625 204.65625 63.398438 167.378906 C 88.171875 167.589844 111.917969 175.402344 131.878906 188.878906 C 137.898438 212.164062 150.042969 233.472656 167.734375 250.660156 C 169.769531 252.640625 171.9375 254.492188 174.105469 256.339844 Z M 174.105469 256.339844 "/>
<path style=" stroke:none;fill-rule:nonzero;fill:rgb(0%,29.019165%,67.83905%);fill-opacity:1;" d="M 138.753906 132.265625 C 160.4375 149.199219 175.964844 172.972656 182.839844 199.441406 C 180.636719 208.554688 179.394531 217.96875 179.183594 227.507812 C 169.453125 209.839844 155.855469 194.902344 139.816406 183.449219 C 135.9375 166.644531 135.546875 149.203125 138.753906 132.265625 Z M 138.753906 132.265625 "/>
<path style=" stroke:none;fill-rule:nonzero;fill:rgb(0%,29.019165%,67.83905%);fill-opacity:1;" d="M 236.980469 178.175781 C 236.679688 179.777344 236.21875 181.324219 235.859375 182.90625 C 219.492188 194.4375 205.617188 209.578125 195.75 227.507812 C 195.539062 217.96875 194.285156 208.566406 192.085938 199.433594 C 199.023438 172.722656 214.785156 148.769531 236.785156 131.808594 C 239.722656 146.917969 239.886719 162.585938 236.980469 178.175781 Z M 236.980469 178.175781 "/>
<path style=" stroke:none;fill-rule:nonzero;fill:rgb(0%,29.019165%,67.83905%);fill-opacity:1;" d="M 231.605469 197.546875 C 224.359375 217.683594 212.125 235.480469 195.75 249.445312 C 203.144531 228.863281 215.691406 211.171875 231.605469 197.546875 Z M 231.605469 197.546875 "/>
<path style=" stroke:none;fill-rule:nonzero;fill:rgb(0%,29.019165%,67.83905%);fill-opacity:1;" d="M 243.761719 188.386719 C 263.601562 175.1875 287.117188 167.5625 311.632812 167.378906 C 305.363281 187.929688 293.890625 206.621094 277.917969 221.847656 C 256.878906 241.910156 230.195312 253.78125 201.644531 256.238281 C 222.425781 238.5 236.976562 214.984375 243.761719 188.386719 Z M 243.761719 188.386719 "/>
<g clip-path="url(#clip1)" clip-rule="nonzero">
<path style=" stroke:none;fill-rule:nonzero;fill:rgb(0%,29.019165%,67.83905%);fill-opacity:1;" d="M 171.511719 69.160156 C 178.007812 62.472656 183.453125 54.988281 187.773438 46.832031 C 192.09375 55 197.539062 62.480469 204.035156 69.160156 C 208.898438 74.152344 213.398438 79.640625 217.394531 85.457031 C 225.230469 96.894531 230.875 109.351562 234.488281 122.324219 C 212.9375 137.933594 196.609375 159.660156 187.464844 184.300781 C 178.386719 159.851562 162.257812 138.242188 140.953125 122.660156 C 146.28125 103.140625 156.433594 84.664062 171.511719 69.160156 Z M 171.511719 69.160156 "/>
</g>
<path style=" stroke:none;fill-rule:nonzero;fill:rgb(0%,29.019165%,67.83905%);fill-opacity:1;" d="M 62.820312 94.980469 C 72.523438 102.0625 83.570312 107.371094 95.121094 110.476562 C 108.121094 113.964844 120.0625 119.5 130.773438 126.570312 C 128.5625 136.5625 127.359375 146.839844 127.503906 157.328125 C 127.597656 163.871094 128.3125 170.289062 129.328125 176.632812 C 109.289062 164.960938 86.230469 158.40625 62.34375 158.40625 C 61.890625 158.40625 61.441406 158.40625 60.988281 158.414062 C 56.304688 138.023438 56.613281 116.277344 62.820312 94.980469 Z M 62.820312 94.980469 "/>
<path style=" stroke:none;fill-rule:nonzero;fill:rgb(0%,29.019165%,67.83905%);fill-opacity:1;" d="M 142.757812 271.734375 C 109.324219 276.695312 75.941406 268.394531 48.765625 248.277344 C 23.308594 229.429688 6.152344 202.351562 0 171.507812 C 11.84375 173.285156 24.105469 172.882812 35.800781 170.296875 C 41.921875 168.941406 48.039062 168.0625 54.113281 167.660156 C 65.929688 208.597656 96.796875 243.394531 140.058594 258.355469 C 149.464844 261.605469 159.125 263.796875 168.933594 264.917969 C 160.511719 268.105469 151.761719 270.386719 142.757812 271.734375 Z M 142.757812 271.734375 "/>
<path style=" stroke:none;fill-rule:nonzero;fill:rgb(0%,29.019165%,67.83905%);fill-opacity:1;" d="M 361.625 207.765625 C 345.277344 237.351562 318.390625 258.800781 285.902344 268.160156 C 259.261719 275.851562 231.472656 274.636719 206 264.933594 C 235.226562 261.648438 262.460938 248.988281 284.113281 228.34375 C 301.824219 211.457031 314.375 190.59375 320.90625 167.660156 C 326.957031 168.082031 333.046875 168.949219 339.125 170.296875 C 350.808594 172.890625 363.082031 173.285156 374.933594 171.507812 C 372.382812 184.214844 367.921875 196.382812 361.625 207.765625 Z M 361.625 207.765625 "/>
</g>
</svg>
