<?xml version="1.0" encoding="UTF-8"?>
<svg xmlns="http://www.w3.org/2000/svg" xmlns:xlink="http://www.w3.org/1999/xlink" width="375pt" height="374.999991pt" viewBox="0 0 375 374.999991" version="1.2">
<g id="surface1">
<path style=" stroke:none;fill-rule:nonzero;fill:rgb(32.939148%,32.939148%,32.939148%);fill-opacity:1;" d="M 219.738281 172.207031 C 221.824219 172.542969 223.292969 171.910156 224.554688 170.253906 C 223.621094 171.46875 225.796875 168.882812 226.242188 168.429688 C 227.984375 166.648438 229.949219 165.214844 232.066406 163.960938 C 240.296875 159 249.195312 161.167969 256.84375 166.09375 C 261.480469 169.066406 265.738281 161.703125 261.144531 158.734375 C 247.105469 149.695312 230.03125 151.28125 219.109375 163.589844 C 208.957031 162.503906 199.074219 164.625 192.054688 172.757812 C 189.203125 176.066406 186.882812 180.289062 185.585938 184.632812 C 175.039062 183.046875 164.515625 184.632812 157.75 193.96875 C 154.296875 198.726562 152.679688 205.640625 152.953125 211.46875 C 153.210938 216.925781 161.71875 216.964844 161.472656 211.46875 C 161.304688 207.960938 162.015625 204.21875 163.492188 201.03125 C 167.910156 191.457031 178.761719 191.640625 187.703125 193.683594 C 189.742188 194.132812 192.609375 193.078125 192.949219 190.710938 C 194.914062 177.035156 206.414062 169.984375 219.738281 172.207031 "/>
<path style=" stroke:none;fill-rule:nonzero;fill:rgb(32.939148%,32.939148%,32.939148%);fill-opacity:1;" d="M 238.910156 118.71875 C 246.324219 134.050781 262.855469 140.378906 279.128906 133.964844 C 282.910156 132.464844 281.265625 126.296875 277.421875 127.804688 C 267.949219 131.542969 258.496094 131.492188 250.78125 124.261719 C 247.957031 121.625 244.867188 116.878906 243.820312 114.109375 C 243.203125 112.507812 241.679688 111.371094 239.890625 111.886719 C 227.566406 115.429688 212.101562 113.375 208.316406 99.027344 C 207.269531 95.039062 201.109375 96.742188 202.167969 100.730469 C 206.59375 117.511719 223.792969 122.054688 238.910156 118.71875 "/>
<path style=" stroke:none;fill-rule:nonzero;fill:rgb(32.939148%,32.939148%,32.939148%);fill-opacity:1;" d="M 135.144531 213.6875 C 123.597656 211.449219 115.523438 200.75 112.085938 189.960938 C 112.234375 176.167969 99.988281 165.8125 86.855469 165.34375 C 82.746094 165.171875 82.753906 171.558594 86.855469 171.726562 C 97.3125 172.089844 105.132812 179.835938 105.679688 190.226562 C 105.679688 190.390625 105.679688 190.578125 105.699219 190.726562 C 105.980469 201.195312 96.773438 209.03125 86.855469 209.398438 C 82.753906 209.535156 82.746094 215.925781 86.855469 215.777344 C 97.320312 215.386719 105.855469 209.445312 109.769531 200.664062 C 114.851562 209.949219 122.992188 217.835938 133.433594 219.851562 C 137.464844 220.617188 139.175781 214.476562 135.144531 213.6875 "/>
<path style=" stroke:none;fill-rule:nonzero;fill:rgb(32.939148%,32.939148%,32.939148%);fill-opacity:1;" d="M 156.054688 167.195312 C 159.5 154.953125 162.691406 134.972656 152.546875 124.425781 C 158.230469 119.800781 161.863281 112.777344 163.394531 104.753906 C 164.167969 100.730469 158.023438 99.027344 157.238281 103.050781 C 154.929688 115.09375 148.121094 123.476562 135.398438 123.929688 C 129.835938 124.113281 123.90625 122.945312 118.726562 120.820312 C 114.921875 119.257812 113.273438 125.449219 117.035156 126.988281 C 123.585938 129.65625 131.195312 130.769531 138.210938 130.140625 C 141.394531 129.851562 144.253906 129.054688 146.84375 127.9375 C 147.117188 128.1875 147.441406 128.46875 147.585938 128.621094 C 149.085938 130.257812 150.15625 132.375 150.96875 134.433594 C 154.828125 144.300781 152.664062 155.660156 149.890625 165.480469 C 148.773438 169.453125 154.929688 171.15625 156.054688 167.195312 "/>
<path style=" stroke:none;fill-rule:nonzero;fill:rgb(32.939148%,32.939148%,32.939148%);fill-opacity:1;" d="M 240.386719 229.640625 C 241.644531 224.296875 233.4375 222.019531 232.175781 227.367188 C 230.003906 236.535156 224.726562 242.945312 214.941406 243.5 C 210.660156 243.730469 206.144531 242.960938 202.136719 241.421875 C 197 239.472656 194.785156 247.6875 199.875 249.640625 C 205.4375 251.761719 211.90625 252.464844 217.792969 251.75 C 219.550781 251.535156 221.214844 251.148438 222.785156 250.628906 C 228.523438 256.503906 231.390625 265.421875 232.023438 273.519531 C 232.4375 278.953125 240.960938 278.984375 240.539062 273.519531 C 239.800781 263.953125 236.734375 253.902344 230.476562 246.488281 C 235.441406 242.464844 238.765625 236.515625 240.386719 229.640625 "/>
<path style=" stroke:none;fill-rule:nonzero;fill:rgb(32.939148%,32.939148%,32.939148%);fill-opacity:1;" d="M 309.019531 175.746094 C 308.964844 171.640625 302.582031 171.640625 302.632812 175.746094 C 302.730469 183.546875 297.707031 188.574219 290.351562 190.3125 C 278.898438 193.03125 268.023438 185.734375 256.535156 187.136719 C 246.105469 188.40625 237.195312 196.605469 234.191406 206.589844 C 233.007812 210.546875 239.175781 212.234375 240.351562 208.296875 C 241.414062 204.757812 243.675781 201.503906 246.21875 198.890625 C 253.628906 191.3125 263.332031 193.285156 272.488281 195.496094 C 270.546875 205.609375 273.859375 214.578125 283.226562 219.6875 C 288.652344 222.640625 295.335938 224.089844 301.5 224.195312 C 305.605469 224.277344 305.597656 217.898438 301.5 217.8125 C 297.351562 217.730469 293.199219 216.8125 289.289062 215.425781 C 280.707031 212.371094 276.972656 205.453125 278.761719 196.6875 C 293.15625 198.359375 309.230469 192.832031 309.019531 175.746094 "/>
<path style=" stroke:none;fill-rule:nonzero;fill:rgb(32.939148%,32.939148%,32.939148%);fill-opacity:1;" d="M 285.460938 275.796875 C 276.699219 291.324219 260.042969 301.847656 240.929688 301.847656 C 212.707031 301.847656 189.839844 278.984375 189.839844 250.765625 C 189.839844 249.710938 189.871094 248.691406 189.933594 247.65625 C 180.675781 257.09375 167.792969 262.921875 153.53125 262.921875 C 136.3125 262.921875 121.109375 254.402344 111.859375 241.34375 C 105.9375 243.75 99.472656 245.085938 92.703125 245.085938 C 64.492188 245.085938 41.617188 222.183594 41.617188 193.988281 C 41.617188 173.609375 53.585938 156.011719 70.855469 147.808594 C 70.71875 146.207031 70.625 144.570312 70.625 142.898438 C 70.625 114.675781 93.496094 91.8125 121.710938 91.8125 C 124.601562 91.8125 127.421875 92.0625 130.175781 92.519531 C 139.546875 81.195312 153.707031 73.980469 169.554688 73.980469 C 180.714844 73.980469 191.011719 77.550781 199.421875 83.617188 C 208.015625 77.066406 218.734375 73.160156 230.375 73.160156 C 253.824219 73.160156 273.570312 88.960938 279.585938 110.484375 C 307.175781 111.21875 329.316406 133.796875 329.316406 161.550781 C 329.316406 172.355469 325.960938 182.378906 320.238281 190.609375 C 328.402344 199.675781 333.378906 211.652344 333.378906 224.808594 C 333.378906 251.945312 312.191406 274.160156 285.460938 275.796875 Z M 187.496094 0.0117188 C 83.949219 0.0117188 0.0078125 83.953125 0.0078125 187.5 C 0.0078125 291.050781 83.949219 374.992188 187.496094 374.992188 C 291.042969 374.992188 374.988281 291.050781 374.988281 187.5 C 374.988281 83.953125 291.042969 0.0117188 187.496094 0.0117188 "/>
</g>
</svg>
