<?xml version="1.0" encoding="UTF-8"?>
<svg xmlns="http://www.w3.org/2000/svg" xmlns:xlink="http://www.w3.org/1999/xlink" width="375pt" height="374.999991pt" viewBox="0 0 375 374.999991" version="1.2">
<g id="surface1">
<path style=" stroke:none;fill-rule:nonzero;fill:rgb(45.098877%,45.098877%,45.098877%);fill-opacity:1;" d="M 374.972656 187.496094 C 374.972656 291.035156 291.035156 374.972656 187.496094 374.972656 C 83.945312 374.972656 0.0078125 291.035156 0.0078125 187.496094 C 0.0078125 83.945312 83.945312 0.0078125 187.496094 0.0078125 C 291.035156 0.0078125 374.972656 83.945312 374.972656 187.496094 "/>
<path style=" stroke:none;fill-rule:nonzero;fill:rgb(100%,100%,100%);fill-opacity:1;" d="M 188.878906 239.242188 C 144.730469 239.347656 111.953125 200.050781 102.738281 187.683594 C 111.898438 175.277344 144.503906 135.839844 188.652344 135.738281 C 232.8125 135.640625 265.589844 174.945312 274.800781 187.300781 C 265.667969 199.714844 233.164062 239.144531 188.878906 239.242188 M 188.621094 122.179688 C 129.03125 122.304688 90.339844 181.515625 88.722656 184.039062 C 87.289062 186.277344 87.292969 189.152344 88.742188 191.386719 C 90.367188 193.90625 129.320312 252.9375 188.914062 252.8125 C 248.503906 252.671875 287.195312 193.460938 288.8125 190.9375 C 290.246094 188.699219 290.238281 185.820312 288.789062 183.59375 C 287.160156 181.078125 248.214844 122.039062 188.621094 122.179688 "/>
<path style=" stroke:none;fill-rule:nonzero;fill:rgb(100%,100%,100%);fill-opacity:1;" d="M 188.808594 206.617188 C 178.265625 206.632812 169.664062 198.074219 169.648438 187.53125 C 169.621094 176.992188 178.179688 168.394531 188.71875 168.367188 C 199.265625 168.34375 207.867188 176.90625 207.886719 187.445312 C 207.914062 197.992188 199.351562 206.585938 188.808594 206.617188 M 188.695312 154.804688 C 170.675781 154.84375 156.042969 169.539062 156.082031 187.570312 C 156.125 205.585938 170.816406 220.214844 188.839844 220.179688 C 206.859375 220.136719 221.492188 205.441406 221.453125 187.421875 C 221.414062 169.386719 206.71875 154.765625 188.695312 154.804688 "/>
<path style=" stroke:none;fill-rule:nonzero;fill:rgb(32.939148%,32.939148%,32.939148%);fill-opacity:1;" d="M 188.78125 206.617188 C 188.777344 206.617188 188.777344 206.617188 188.773438 206.617188 C 178.246094 206.613281 169.664062 198.058594 169.648438 187.53125 C 169.648438 187.507812 169.648438 187.488281 169.648438 187.46875 C 169.65625 176.957031 178.199219 168.394531 188.71875 168.367188 C 188.734375 168.367188 188.746094 168.367188 188.761719 168.367188 C 188.761719 168.367188 188.765625 168.367188 188.769531 168.367188 C 199.289062 168.371094 207.867188 176.921875 207.886719 187.445312 C 207.886719 187.464844 207.886719 187.484375 207.886719 187.503906 C 207.878906 198.027344 199.332031 206.585938 188.808594 206.617188 C 188.800781 206.617188 188.789062 206.617188 188.78125 206.617188 "/>
<path style=" stroke:none;fill-rule:nonzero;fill:rgb(32.939148%,32.939148%,32.939148%);fill-opacity:1;" d="M 188.707031 239.242188 C 188.703125 239.242188 188.703125 239.242188 188.699219 239.242188 C 144.722656 239.234375 112.058594 200.171875 102.785156 187.75 C 102.773438 187.726562 102.757812 187.707031 102.738281 187.683594 C 111.898438 175.277344 144.503906 135.839844 188.652344 135.738281 C 188.660156 135.738281 188.664062 135.738281 188.667969 135.738281 C 188.675781 135.738281 188.679688 135.738281 188.683594 135.738281 C 188.726562 135.738281 188.773438 135.738281 188.816406 135.738281 C 188.820312 135.738281 188.816406 135.738281 188.820312 135.738281 C 232.65625 135.746094 265.25 174.542969 274.652344 187.101562 C 274.660156 187.109375 274.667969 187.121094 274.675781 187.128906 C 274.683594 187.136719 274.683594 187.144531 274.691406 187.152344 C 274.691406 187.152344 274.695312 187.152344 274.695312 187.15625 C 274.703125 187.167969 274.710938 187.179688 274.722656 187.191406 C 274.742188 187.21875 274.761719 187.242188 274.78125 187.273438 C 274.789062 187.28125 274.796875 187.289062 274.800781 187.300781 C 265.667969 199.714844 233.164062 239.144531 188.878906 239.242188 C 188.824219 239.242188 188.761719 239.242188 188.707031 239.242188 M 188.773438 220.179688 C 188.796875 220.179688 188.816406 220.179688 188.839844 220.179688 C 206.839844 220.136719 221.464844 205.464844 221.453125 187.472656 C 221.453125 187.457031 221.453125 187.4375 221.453125 187.421875 C 221.414062 169.414062 206.761719 154.804688 188.777344 154.804688 C 188.777344 154.804688 188.773438 154.804688 188.773438 154.804688 L 188.769531 154.804688 C 188.753906 154.804688 188.734375 154.804688 188.714844 154.804688 C 188.710938 154.804688 188.703125 154.804688 188.695312 154.804688 C 170.695312 154.84375 156.070312 169.511719 156.082031 187.515625 C 156.082031 187.53125 156.082031 187.550781 156.082031 187.570312 C 156.125 205.5625 170.773438 220.175781 188.765625 220.179688 C 188.769531 220.179688 188.769531 220.179688 188.773438 220.179688 "/>
<path style=" stroke:none;fill-rule:nonzero;fill:rgb(82.749939%,82.348633%,82.348633%);fill-opacity:1;" d="M 188.707031 239.242188 C 188.703125 239.242188 188.703125 239.242188 188.699219 239.242188 C 188.703125 239.242188 188.703125 239.242188 188.707031 239.242188 M 188.707031 239.242188 C 188.761719 239.242188 188.824219 239.242188 188.878906 239.242188 C 233.164062 239.144531 265.667969 199.714844 274.800781 187.300781 C 265.667969 199.714844 233.164062 239.144531 188.878906 239.242188 C 188.820312 239.242188 188.761719 239.242188 188.707031 239.242188 M 102.785156 187.75 C 102.773438 187.726562 102.757812 187.707031 102.738281 187.683594 C 102.757812 187.707031 102.773438 187.726562 102.785156 187.75 M 274.78125 187.273438 C 274.761719 187.242188 274.742188 187.21875 274.722656 187.191406 C 274.742188 187.21875 274.761719 187.242188 274.78125 187.273438 M 274.695312 187.15625 C 274.695312 187.152344 274.691406 187.152344 274.691406 187.152344 C 274.691406 187.152344 274.695312 187.152344 274.695312 187.15625 M 274.675781 187.128906 C 274.667969 187.121094 274.660156 187.109375 274.652344 187.101562 C 274.660156 187.109375 274.667969 187.121094 274.675781 187.128906 M 188.667969 135.738281 C 188.675781 135.738281 188.679688 135.738281 188.683594 135.738281 C 188.679688 135.738281 188.675781 135.738281 188.667969 135.738281 M 188.683594 135.738281 C 188.730469 135.738281 188.769531 135.738281 188.816406 135.738281 C 188.773438 135.738281 188.726562 135.738281 188.683594 135.738281 M 188.820312 135.738281 C 188.816406 135.738281 188.820312 135.738281 188.816406 135.738281 C 188.820312 135.738281 188.816406 135.738281 188.820312 135.738281 "/>
<path style=" stroke:none;fill-rule:nonzero;fill:rgb(82.749939%,82.348633%,82.348633%);fill-opacity:1;" d="M 188.773438 220.179688 C 188.769531 220.179688 188.769531 220.179688 188.765625 220.179688 C 188.769531 220.179688 188.769531 220.179688 188.773438 220.179688 M 188.773438 220.179688 C 188.792969 220.179688 188.816406 220.179688 188.839844 220.179688 C 188.816406 220.179688 188.796875 220.179688 188.773438 220.179688 M 156.082031 187.515625 C 156.070312 169.511719 170.695312 154.84375 188.695312 154.804688 C 170.695312 154.84375 156.070312 169.511719 156.082031 187.515625 M 221.453125 187.472656 C 221.453125 187.457031 221.453125 187.4375 221.453125 187.421875 C 221.453125 187.4375 221.453125 187.457031 221.453125 187.472656 M 188.714844 154.804688 C 188.734375 154.804688 188.753906 154.804688 188.769531 154.804688 C 188.753906 154.804688 188.734375 154.804688 188.714844 154.804688 M 188.777344 154.804688 C 188.777344 154.804688 188.773438 154.804688 188.773438 154.804688 C 188.773438 154.804688 188.777344 154.804688 188.777344 154.804688 "/>
<path style=" stroke:none;fill-rule:nonzero;fill:rgb(82.749939%,82.348633%,82.348633%);fill-opacity:1;" d="M 108.78125 215.316406 C 107.898438 214.4375 106.992188 213.550781 106.148438 212.6875 L 108.78125 215.316406 M 106.148438 212.6875 L 105.839844 212.375 L 105.835938 212.359375 C 105.9375 212.46875 106.042969 212.578125 106.148438 212.6875 "/>
<path style=" stroke:none;fill-rule:nonzero;fill:rgb(32.939148%,32.939148%,32.939148%);fill-opacity:1;" d="M 255.613281 362.15625 L 111.113281 217.652344 C 119.417969 225.585938 129.832031 233.921875 142.0625 240.488281 C 142.066406 240.488281 142.070312 240.488281 142.074219 240.492188 C 142.089844 240.5 142.105469 240.511719 142.117188 240.515625 C 142.136719 240.523438 142.152344 240.535156 142.167969 240.542969 C 155.632812 247.753906 171.289062 252.8125 188.714844 252.8125 C 188.78125 252.8125 188.847656 252.8125 188.914062 252.8125 C 248.503906 252.671875 287.195312 193.460938 288.8125 190.9375 C 289.527344 189.820312 289.882812 188.546875 289.882812 187.277344 C 289.878906 185.992188 289.519531 184.710938 288.789062 183.59375 C 288.777344 183.574219 288.761719 183.550781 288.742188 183.523438 C 288.265625 182.789062 286.078125 179.503906 282.351562 174.800781 L 362.445312 254.898438 C 343.523438 303.957031 304.585938 343.039062 255.613281 362.15625 "/>
<path style=" stroke:none;fill-rule:nonzero;fill:rgb(82.749939%,82.348633%,82.348633%);fill-opacity:1;" d="M 142.117188 240.515625 C 142.105469 240.511719 142.089844 240.5 142.074219 240.492188 C 142.089844 240.5 142.105469 240.507812 142.117188 240.515625 M 142.0625 240.488281 C 129.832031 233.921875 119.417969 225.585938 111.113281 217.652344 L 111.003906 217.539062 C 119.324219 225.507812 129.78125 233.890625 142.0625 240.488281 M 289.882812 187.277344 C 289.878906 185.992188 289.519531 184.710938 288.789062 183.59375 C 289.519531 184.710938 289.878906 185.992188 289.882812 187.277344 M 288.742188 183.523438 C 288.257812 182.777344 285.953125 179.359375 282.167969 174.601562 C 282.273438 174.71875 282.339844 174.792969 282.339844 174.792969 L 282.351562 174.800781 C 286.078125 179.503906 288.265625 182.789062 288.742188 183.523438 "/>
</g>
</svg>
